<svg width="32" height="32" viewBox="0 0 32 32" fill="none" xmlns="http://www.w3.org/2000/svg">
<path d="M16 28C18.1217 28 20.1566 27.1571 21.6569 25.6569C23.1571 24.1566 24 22.1217 24 20C24 17.8783 23.1571 15.8434 21.6569 14.3431C20.1566 12.8429 18.1217 12 16 12C13.8783 12 11.8434 12.8429 10.3431 14.3431C8.84285 15.8434 8 17.8783 8 20C8 22.1217 8.84285 24.1566 10.3431 25.6569C11.8434 27.1571 13.8783 28 16 28ZM16 30C13.3478 30 10.8043 28.9464 8.92893 27.0711C7.05357 25.1957 6 22.6522 6 20C6 17.3478 7.05357 14.8043 8.92893 12.9289C10.8043 11.0536 13.3478 10 16 10C18.6522 10 21.1957 11.0536 23.0711 12.9289C24.9464 14.8043 26 17.3478 26 20C26 22.6522 24.9464 25.1957 23.0711 27.0711C21.1957 28.9464 18.6522 30 16 30Z" fill="#404A5B"/>
<path d="M17.9996 4H13.9996V10.25C14.6548 10.0917 15.3257 10.0078 15.9996 10C16.6096 10 17.2756 10.084 17.9996 10.25V4ZM19.9997 4V10.864C20.7637 11.148 21.5797 11.502 22.4497 11.924L23.6697 4H19.9997ZM11.9996 4H8.33164L9.55164 11.924C10.4216 11.502 11.2356 11.148 11.9996 10.864V4ZM7.16564 2H24.8337C24.9778 2.00005 25.1202 2.03127 25.2512 2.09151C25.3821 2.15174 25.4985 2.23958 25.5923 2.34899C25.6862 2.45841 25.7553 2.58681 25.7948 2.72541C25.8344 2.86401 25.8436 3.00953 25.8217 3.152L23.9997 15C20.4437 13 17.7776 12 15.9996 12C14.2216 12 11.5556 13 7.99964 15L6.17764 3.152C6.15573 3.00953 6.16487 2.86401 6.20445 2.72541C6.24403 2.58681 6.31311 2.45841 6.40695 2.34899C6.50078 2.23958 6.61716 2.15174 6.74812 2.09151C6.87907 2.03127 7.02149 2.00005 7.16564 2Z" fill="#404A5B"/>
</svg>
