<svg width="32" height="32" viewBox="0 0 32 32" fill="none" xmlns="http://www.w3.org/2000/svg">
<path d="M26.8257 2.00002L8.47705 2.04345C7.66668 2.0487 6.89142 2.37878 6.32024 2.96158C5.74906 3.54419 5.42855 4.33242 5.42855 5.1538V22.3674H2.71429C2.31968 22.3674 2 22.6916 2 23.0914V24.8927C2.0006 25.7161 2.32346 26.5056 2.89766 27.0881C3.47185 27.6705 4.25053 27.9986 5.06288 28H18.9885C19.3831 28 19.7028 27.676 19.7028 27.276C19.7028 26.8762 19.3831 26.552 18.9885 26.552H5.06288C4.62921 26.5514 4.21349 26.3763 3.90716 26.065C3.60064 25.7539 3.42864 25.3323 3.42864 24.8927V23.8154H18.9885C19.3831 23.8154 19.7028 23.4912 19.7028 23.0914C19.7028 22.6916 19.3831 22.3674 18.9885 22.3674H6.85724V5.1538C6.85804 4.71443 7.03023 4.29322 7.33656 3.98216C7.64268 3.67127 8.05804 3.49593 8.49152 3.49431L24.1886 3.45674C23.8468 3.97952 23.6648 4.59305 23.6656 5.22045V9.14447C23.6656 9.54425 23.9855 9.86847 24.3799 9.86847C24.7745 9.86847 25.0942 9.54425 25.0942 9.14447V5.2174C25.095 4.74834 25.2792 4.29864 25.6064 3.96716C25.9337 3.63546 26.3773 3.44883 26.8401 3.448C27.3003 3.45264 27.7404 3.64092 28.0644 3.97222C28.3887 4.30352 28.5708 4.75099 28.5714 5.2174V6.18461H27.0115C26.6171 6.18461 26.2972 6.50883 26.2972 6.90861C26.2972 7.30859 26.6171 7.63261 27.0115 7.63261H29.2973C29.6873 7.62635 30.0002 7.30414 30 6.90861V5.2174C29.9994 4.36432 29.6646 3.54641 29.0695 2.94316C28.4744 2.33997 27.6674 2.00078 26.8257 2L26.8257 2.00002Z" fill="#404A5B"/>
<path d="M19.4583 20.2983C19.7373 20.4188 19.9441 20.6753 20.0131 20.9863C20.1695 21.7485 20.6493 22.3911 21.3132 22.7265C22.0127 23.0912 22.8321 23.0912 23.5318 22.7265C23.8265 22.5752 24.1703 22.5752 24.465 22.7265C25.1647 23.0907 25.9839 23.0907 26.6836 22.7265C27.3477 22.3913 27.8277 21.7487 27.9837 20.9863C28.0525 20.6753 28.2593 20.4188 28.5383 20.2983C29.2486 19.9852 29.7714 19.3259 29.9411 18.53C30.1096 17.7552 29.9115 16.9418 29.4099 16.3509C29.2222 16.1272 29.1508 15.8195 29.2191 15.529C29.4091 14.7804 29.2523 13.9807 28.7966 13.3746C28.3098 12.7227 27.561 12.3533 26.7774 12.3785C26.4581 12.3941 26.1506 12.2474 25.95 11.9831C25.4724 11.3611 24.7562 11 23.9998 11C23.2436 11 22.5273 11.3611 22.0498 11.9831C21.8465 12.2437 21.5409 12.3896 21.2221 12.3785C20.4383 12.3522 19.6893 12.7218 19.2032 13.3746C18.7475 13.9807 18.5905 14.7804 18.7806 15.529C18.8531 15.8234 18.7815 16.1368 18.5899 16.3633C18.0887 16.9546 17.8906 17.7676 18.0586 18.5424C18.2314 19.3326 18.7526 19.9863 19.4584 20.2983H19.4583ZM19.6872 17.3906H19.6874C20.2034 16.7741 20.394 15.9244 20.195 15.1274C20.1291 14.8573 20.1867 14.5703 20.3506 14.3522C20.551 14.0853 20.8597 13.9359 21.1811 13.9507C21.9582 13.9685 22.6998 13.6057 23.1913 12.9668C23.3903 12.7151 23.6842 12.5698 23.9939 12.5698C24.3037 12.5698 24.5974 12.7151 24.7966 12.9668C25.2883 13.605 26.0299 13.9668 26.8068 13.9475C27.1296 13.9327 27.4397 14.0832 27.6401 14.3523C27.8096 14.5735 27.8685 14.8678 27.7985 15.1429C27.5996 15.9401 27.7901 16.7898 28.3064 17.4063C28.4923 17.6209 28.5668 17.9188 28.5058 18.2033C28.4364 18.5108 28.2307 18.7638 27.9541 18.8819C27.2381 19.2033 26.7132 19.8727 26.5455 20.6782C26.4827 20.9715 26.2952 21.2178 26.0379 21.3444C25.7437 21.4979 25.3988 21.4979 25.1046 21.3444C24.4045 20.9861 23.589 20.9861 22.8889 21.3444C22.5947 21.4979 22.25 21.4979 21.9556 21.3444C21.6985 21.2173 21.5112 20.9713 21.4479 20.6782C21.2803 19.8727 20.7554 19.2033 20.0394 18.8819C19.7628 18.7638 19.5573 18.5108 19.4877 18.2033C19.4208 17.9145 19.4947 17.6093 19.6842 17.3907L19.6872 17.3906Z" fill="#404A5B"/>
<path d="M21.8021 24C21.3592 24 21 24.3206 21 24.716V29.284C21 29.5553 21.1717 29.8032 21.4436 29.9244C21.7153 30.0457 22.0405 30.0195 22.2835 29.8567L24.0001 28.6769L25.7167 29.8567H25.7165C25.9595 30.0195 26.2847 30.0457 26.5566 29.9244C26.8283 29.8032 27 29.5552 27 29.284V24.7561C27 24.3608 26.6408 24.0401 26.1979 24.0401C25.7547 24.0401 25.3958 24.3608 25.3958 24.7561V27.8262L24.4813 27.1962C24.1928 26.998 23.7911 26.998 23.5028 27.1962L22.5883 27.8262V24.716C22.5883 24.326 22.239 24.0078 21.8021 24H21.8021Z" fill="#404A5B"/>
<path d="M9.74002 8H20.26C20.6686 8 21 7.77609 21 7.5C21 7.22377 20.6686 7 20.26 7H9.74002C9.33119 7 9 7.22377 9 7.5C9 7.77609 9.33119 8 9.74002 8Z" fill="#404A5B"/>
<path d="M18 11.5C18 11.3675 17.9234 11.2402 17.7874 11.1465C17.6513 11.0527 17.4666 11 17.2742 11H9.72581C9.32503 11 9 11.2239 9 11.5C9 11.7762 9.32503 12 9.72581 12H17.2742C17.4666 12 17.6513 11.9474 17.7874 11.8537C17.9234 11.7598 18 11.6327 18 11.5Z" fill="#404A5B"/>
<path d="M16 14.8C16 14.9325 15.9202 15.0598 15.7783 15.1535C15.6365 15.2473 15.444 15.3 15.2434 15.3H9.75658C9.3386 15.3 9 15.0761 9 14.8C9 14.5238 9.3386 14.3 9.75658 14.3H15.2434C15.444 14.3 15.6365 14.3526 15.7783 14.4463C15.9202 14.5401 16 14.6673 16 14.8Z" fill="#404A5B"/>
<path d="M15.1726 18H9.82744C9.37031 18 9 18.2239 9 18.5C9 18.7761 9.37031 19 9.82744 19H15.1726C15.6297 19 16 18.7761 16 18.5C16 18.2239 15.6297 18 15.1726 18Z" fill="#404A5B"/>
</svg>
