<svg width="32" height="32" viewBox="0 0 32 32" fill="none" xmlns="http://www.w3.org/2000/svg">
<path d="M14.19 25.0392C12.1938 27.0354 8.94568 27.0354 6.94934 25.0392C4.95309 23.0429 4.95309 19.7948 6.94934 17.7985L10.5697 14.1782C12.5659 12.1819 15.814 12.1819 17.8104 14.1782V14.178C17.9579 14.3214 18.0416 14.5178 18.043 14.7233C18.0445 14.9289 17.9634 15.1266 17.818 15.2719C17.6727 15.4173 17.4752 15.4983 17.2695 15.4967C17.0639 15.4953 16.8675 15.4116 16.7243 15.2642C15.3109 13.8509 13.0691 13.8509 11.6555 15.2642L8.03514 18.8846C6.62174 20.298 6.62174 22.5398 8.03514 23.9534C9.44853 25.367 11.6903 25.3668 13.1039 23.9534L16.3623 20.695H16.3621C16.5055 20.5477 16.702 20.4639 16.9075 20.4625C17.1131 20.4611 17.3105 20.542 17.4559 20.6873C17.6013 20.8327 17.6821 21.0302 17.6809 21.2357C17.6795 21.4414 17.5957 21.6377 17.4482 21.7811L14.1898 25.0395L14.19 25.0392ZM21.4307 17.7985C19.4345 19.7947 16.1864 19.7947 14.19 17.7985C14.0427 17.6553 13.959 17.4589 13.9577 17.2533C13.9563 17.0478 14.0372 16.8503 14.1825 16.7049C14.3279 16.5596 14.5254 16.4787 14.7309 16.4801C14.9365 16.4813 15.1329 16.5651 15.2761 16.7124C16.6895 18.1258 18.9313 18.1258 20.3449 16.7124L23.9652 13.0921C25.3786 11.6787 25.3786 9.4369 23.9652 8.02328C22.5519 6.60965 20.3101 6.60988 18.8964 8.02328L15.6381 11.2817H15.6382C15.4949 11.429 15.2984 11.5129 15.0929 11.5143C14.8873 11.5158 14.6897 11.4347 14.5443 11.2893C14.3989 11.144 14.3179 10.9465 14.3193 10.7408C14.3209 10.5352 14.4047 10.3388 14.5522 10.1956L17.8105 6.93719C19.8068 4.94094 23.0549 4.94094 25.0512 6.93719C27.0475 8.93344 27.0475 12.1815 25.0512 14.1779L21.4307 17.7985Z" fill="#404A5B"/>
</svg>
