<svg width="32" height="32" viewBox="0 0 32 32" fill="none" xmlns="http://www.w3.org/2000/svg">
<path fill-rule="evenodd" clip-rule="evenodd" d="M4.92279 29.3333H27.0768C27.5864 29.3333 28 28.9066 28 28.3808C28 27.8552 27.5864 27.4287 27.0768 27.4287H4.92279C4.41342 27.4287 4 27.8554 4 28.3808C4 28.9065 4.41363 29.3333 4.92279 29.3333ZM11.3845 20.7619C11.3845 19.7106 10.5572 18.8572 9.53844 18.8572H7.69198C6.67303 18.8572 5.84596 19.7108 5.84596 20.7619V24.5717C5.84596 25.623 6.67325 26.4763 7.69198 26.4763H9.53844C10.5574 26.4763 11.3845 25.6228 11.3845 24.5717V20.7619ZM18.7688 16.9522C18.7688 15.9008 17.9415 15.0475 16.9227 15.0475H15.0763C14.0573 15.0475 13.2303 15.9011 13.2303 16.9522V24.5717C13.2303 25.623 14.0575 26.4763 15.0763 26.4763H16.9227C17.9417 26.4763 18.7688 25.6228 18.7688 24.5717V16.9522ZM26.153 13.1428C26.153 12.0915 25.3258 11.2382 24.307 11.2382H22.461C21.4421 11.2382 20.6146 12.0917 20.6146 13.1428V24.5718C20.6146 25.6231 21.4421 26.4764 22.461 26.4764H24.307C25.326 26.4764 26.153 25.6229 26.153 24.5718V13.1428ZM9.53811 20.7617V24.5715H7.69165V20.7617H9.53811ZM16.9224 16.952V24.5715H15.0759V16.952H16.9224ZM24.3067 13.1427V24.5716H22.4607V13.1427H24.3067ZM21.8787 4.57124L16.0364 9.92931L12.9598 6.75497C12.5992 6.3829 12.0147 6.3829 11.654 6.75497L6.11555 12.4694C5.75558 12.8409 5.75558 13.4446 6.11555 13.8162C6.47595 14.1881 7.06087 14.1881 7.42129 13.8162L12.307 8.7753L15.3464 11.9115C15.692 12.2681 16.2471 12.2849 16.6124 11.9496L23.3835 5.73964V6.47602C23.3835 7.00179 23.7973 7.42858 24.3067 7.42858C24.8163 7.42858 25.2299 7.00181 25.2299 6.47602V3.61878C25.2299 3.09301 24.8167 2.66667 24.3067 2.66667H21.5375C21.0281 2.66667 20.6142 3.09345 20.6142 3.61878C20.6142 4.14455 21.0281 4.57134 21.5375 4.57134H21.8787L21.8787 4.57124Z" fill="#404A5B"/>
</svg>
