<svg width="24" height="25" viewBox="0 0 24 25" fill="none" xmlns="http://www.w3.org/2000/svg">
<path d="M22.5 7.98227C22.5 7.32393 22.2221 6.69264 21.7273 6.22704C21.2326 5.76161 20.5615 5.5 19.8618 5.5H4.13819C3.4385 5.5 2.76737 5.76162 2.27271 6.22704C1.77786 6.69264 1.5 7.32393 1.5 7.98227V17.0177C1.5 17.6761 1.77788 18.3074 2.27271 18.773C2.76737 19.2384 3.4385 19.5 4.13819 19.5H19.8618C20.5615 19.5 21.2326 19.2384 21.7273 18.773C22.2221 18.3074 22.5 17.6761 22.5 17.0177V7.98227ZM4.11181 6.49282L19.8618 6.49299C20.2818 6.49299 20.6842 6.64986 20.9813 6.92915C21.2781 7.20844 21.4448 7.58731 21.4448 7.98225V8.6276L2.55536 8.62777V7.98229C2.55536 7.58734 2.72209 7.20849 3.01892 6.92919C3.31594 6.6499 3.71842 6.49303 4.13836 6.49303L4.11181 6.49282ZM21.4447 9.64552V11.1597H2.55528V9.64552H21.4447ZM19.8617 18.5072L4.1381 18.507C3.71815 18.507 3.31569 18.3502 3.01866 18.0709C2.72182 17.7916 2.5551 17.4127 2.5551 17.0178V12.1525H21.4445V17.0178C21.4445 17.4127 21.2778 17.7916 20.981 18.0709C20.684 18.3502 20.2815 18.507 19.8615 18.507L19.8617 18.5072Z" fill="white"/>
<path d="M16.7613 14.5462H14.9181C14.706 14.5462 14.5342 14.718 14.5342 14.9301C14.5342 15.1422 14.706 15.3141 14.9181 15.3141H16.7805C16.9925 15.3141 17.1645 15.1421 17.1645 14.9301C17.1645 14.718 16.9925 14.5462 16.7805 14.5462H16.7613Z" fill="white"/>
</svg>
